<?xml version="1.0" encoding="utf-8"?>
<!-- Generator: Adobe Illustrator 24.2.3, SVG Export Plug-In . SVG Version: 6.00 Build 0)  -->
<svg version="1.1" id="Layer_1" xmlns="http://www.w3.org/2000/svg" xmlns:xlink="http://www.w3.org/1999/xlink" x="0px" y="0px"
	 viewBox="0 0 642.2 144" style="enable-background:new 0 0 642.2 144;" xml:space="preserve">
<style type="text/css">
	.st0{fill:#FD4A61;}
	.st1{fill-rule:evenodd;clip-rule:evenodd;fill:#FD4A61;}
	.st2{fill-rule:evenodd;clip-rule:evenodd;}
	.st3{fill:#FFFFFF;}
	.st4{fill-rule:evenodd;clip-rule:evenodd;fill:#FFFFFF;}
	.st5{fill-rule:evenodd;clip-rule:evenodd;fill:#FF4A61;}
</style>
<g>
	<g>
		<path class="st3" d="M137.5,69.9c0,14.4-9.9,23.3-24.9,23.3H97.3V46.3h15.3C127.7,46.3,137.5,55.4,137.5,69.9z M112.7,86.9
			c11.1,0,17-6.3,17-17c0-10.7-5.9-17.3-17-17.3H105v34.3H112.7z"/>
		<path class="st3" d="M161.2,93.8c-10.7,0-18.6-7.6-18.6-19.2c0-11.7,7.6-19.2,18.6-19.2c10.6,0,18.1,7.4,18.1,18.3
			c0,1.3-0.1,2.5-0.3,3.8h-28.4c0.5,6.1,4.9,9.9,10.6,9.9c4.7,0,7.4-2.3,8.8-5.2h8.3C176.1,88.6,170.3,93.8,161.2,93.8z M150.6,71.3
			h20.6c-0.1-5.7-4.7-9.4-10.4-9.4C155.6,61.9,151.5,65.4,150.6,71.3z"/>
		<path class="st3" d="M202.8,93.8c-10.7,0-18.6-7.6-18.6-19.2c0-11.7,7.6-19.2,18.6-19.2c10.6,0,18.1,7.4,18.1,18.3
			c0,1.3-0.1,2.5-0.3,3.8h-28.4c0.5,6.1,4.9,9.9,10.6,9.9c4.7,0,7.4-2.3,8.8-5.2h8.3C217.8,88.6,211.9,93.8,202.8,93.8z M192.3,71.3
			h20.6c-0.1-5.7-4.7-9.4-10.4-9.4C197.3,61.9,193.1,65.4,192.3,71.3z"/>
		<path class="st3" d="M249.1,55.4c9.8,0,17.5,7.6,17.5,19s-7.7,19.4-17.5,19.4c-6.1,0-10.5-3.1-13-6v23.1h-7.7V56h7.7v5.5
			C238.5,58.4,243,55.4,249.1,55.4z M247.4,62.1c-5.7,0-11.3,4.5-11.3,12.5c0,8,5.5,12.5,11.3,12.5c5.8,0,11.3-4.7,11.3-12.7
			S253.2,62.1,247.4,62.1z"/>
		<path class="st3" d="M281.9,46.3V87h15.9v6.2h-23.5V46.3H281.9z"/>
		<path class="st3" d="M320.1,93.8c-10.7,0-18.6-7.6-18.6-19.2c0-11.7,7.6-19.2,18.6-19.2c10.6,0,18.1,7.4,18.1,18.3
			c0,1.3-0.1,2.5-0.3,3.8h-28.4c0.5,6.1,4.9,9.9,10.6,9.9c4.7,0,7.4-2.3,8.8-5.2h8.3C335.1,88.6,329.2,93.8,320.1,93.8z M309.6,71.3
			h20.6c-0.1-5.7-4.7-9.4-10.4-9.4C314.6,61.9,310.4,65.4,309.6,71.3z"/>
		<path class="st3" d="M360.8,55.4c6.3,0,10.6,3,12.9,6V56h7.8v37.2h-7.8v-5.5c-2.4,3.2-6.8,6.1-13,6.1c-9.6,0-17.4-7.9-17.4-19.4
			S351,55.4,360.8,55.4z M362.4,62.1c-5.7,0-11.3,4.3-11.3,12.3s5.5,12.7,11.3,12.7c5.8,0,11.3-4.5,11.3-12.5
			C373.6,66.6,368.2,62.1,362.4,62.1z"/>
		<path class="st3" d="M399.2,93.2h-7.7V56h7.7v5.4c2.2-3.7,5.9-6,11.1-6v8h-2c-5.7,0-9.2,2.4-9.2,10.3V93.2z"/>
		<path class="st3" d="M443.8,72.4c0-6.8-3.7-10.3-9.3-10.3c-5.7,0-9.4,3.5-9.4,10.3v20.8h-7.7V56h7.7v4.3c2.5-3,6.6-4.9,11.1-4.9
			c8.7,0,15.2,5.5,15.2,15.9v21.9h-7.6V72.4z"/>
		<path class="st3" d="M460.2,46.2c0-2.8,2.2-4.9,4.9-4.9c2.7,0,4.9,2.2,4.9,4.9c0,2.8-2.2,4.9-4.9,4.9
			C462.4,51.1,460.2,48.9,460.2,46.2z M461.2,56h7.7v37.2h-7.7V56z"/>
		<path class="st3" d="M505.4,72.4c0-6.8-3.7-10.3-9.3-10.3c-5.7,0-9.4,3.5-9.4,10.3v20.8H479V56h7.7v4.3c2.5-3,6.6-4.9,11.1-4.9
			c8.7,0,15.2,5.5,15.2,15.9v21.9h-7.6V72.4z"/>
		<path class="st3" d="M537.8,55.4c6.1,0,10.6,2.8,12.9,6V56h7.8v37.8c0,10.1-6.5,17.7-18.1,17.7c-9.9,0-17.3-4.9-18.2-13.2h7.6
			c1.1,3.8,5.3,6.5,10.6,6.5c5.9,0,10.4-3.6,10.4-11.1v-6.2c-2.4,3.2-6.8,6.2-12.9,6.2c-9.8,0-17.5-7.9-17.5-19.4
			S528,55.4,537.8,55.4z M539.4,62.1c-5.7,0-11.3,4.3-11.3,12.3s5.5,12.7,11.3,12.7c5.8,0,11.3-4.5,11.3-12.5
			C550.7,66.6,545.2,62.1,539.4,62.1z"/>
		<path class="st3" d="M568.3,93.7c-2.8,0-4.9-2.2-4.9-4.9c0-2.8,2.2-4.9,4.9-4.9c2.7,0,4.9,2.2,4.9,4.9
			C573.2,91.5,571,93.7,568.3,93.7z"/>
		<path class="st3" d="M609.7,83.6h-19.6l-3.4,9.6h-8l16.8-47h8.9l16.8,47h-8.1L609.7,83.6z M600,55.6l-7.7,21.8h15.3L600,55.6z"/>
		<path class="st3" d="M628.5,46.3h7.7v46.9h-7.7V46.3z"/>
	</g>
	<g>
		<path class="st4" d="M44.6,109.6C23.3,109.6,6,92.3,6,71s17.3-38.6,38.6-38.6c21.3,0,38.6,17.3,38.6,38.6S65.9,109.6,44.6,109.6
			L44.6,109.6z M44.9,94.1c16,0,29-13.3,29-29.6s-13-29.6-29-29.6c-16,0-29,13.3-29,29.6S28.8,94.1,44.9,94.1L44.9,94.1z M44.6,87.4
			c-14.6,0-26.4-11.5-26.4-25.6S30,36.1,44.6,36.1S71,47.6,71,61.8S59.1,87.4,44.6,87.4L44.6,87.4z M44,76.9c11,0,20-8.6,20-19.1
			c0-10.6-9-19.1-20-19.1c-11,0-20,8.6-20,19.1C24,68.3,32.9,76.9,44,76.9L44,76.9z M44.3,73.2c-8.6,0-15.7-7.5-15.7-16.7
			s7-16.7,15.7-16.7s15.7,7.5,15.7,16.7S52.9,73.2,44.3,73.2L44.3,73.2z M44,58.6c4.8,0,8.5-3.9,8.5-8.5s-3.8-8.5-8.5-8.5
			c-4.8,0-8.5,3.9-8.5,8.5S39.2,58.6,44,58.6L44,58.6z"/>
		<path class="st4" d="M44.6,109.6C23.3,109.6,6,92.3,6,71s17.3-38.6,38.6-38.6c21.3,0,38.6,17.3,38.6,38.6S65.9,109.6,44.6,109.6
			L44.6,109.6z M44.9,94.1c16,0,29-13.3,29-29.6s-13-29.6-29-29.6c-16,0-29,13.3-29,29.6S28.8,94.1,44.9,94.1L44.9,94.1z M44.6,87.4
			c-14.6,0-26.4-11.5-26.4-25.6S30,36.1,44.6,36.1S71,47.6,71,61.8S59.1,87.4,44.6,87.4L44.6,87.4z M44,76.9c11,0,20-8.6,20-19.1
			c0-10.6-9-19.1-20-19.1c-11,0-20,8.6-20,19.1C24,68.3,32.9,76.9,44,76.9L44,76.9z M28.6,56.5"/>
		<path class="st4" d="M44.6,109.6C23.3,109.6,6,92.3,6,71s17.3-38.6,38.6-38.6c21.3,0,38.6,17.3,38.6,38.6S65.9,109.6,44.6,109.6
			L44.6,109.6z M44.9,94.1c16,0,29-13.3,29-29.6s-13-29.6-29-29.6c-16,0-29,13.3-29,29.6S28.8,94.1,44.9,94.1L44.9,94.1z M44.6,87.4
			 M18.2,61.8 M44,76.9 M24,57.7"/>
	</g>
</g>
</svg>
