<svg id="Layer_1" xmlns="http://www.w3.org/2000/svg" viewBox="0 0 642.2 144"><style>.st0,.st1{fill:#fd4a61}.st1,.st2{fill-rule:evenodd;clip-rule:evenodd}.st3{fill:#fff}.st4,.st5{fill-rule:evenodd;clip-rule:evenodd;fill:#fff}.st5{fill:#ff4a61}</style><path class="st3" d="M137.5 69.9c0 14.4-9.9 23.3-24.9 23.3H97.3V46.3h15.3c15.1 0 24.9 9.1 24.9 23.6zm-24.8 17c11.1 0 17-6.3 17-17s-5.9-17.3-17-17.3H105v34.3h7.7zM161.2 93.8c-10.7 0-18.6-7.6-18.6-19.2 0-11.7 7.6-19.2 18.6-19.2 10.6 0 18.1 7.4 18.1 18.3 0 1.3-.1 2.5-.3 3.8h-28.4c.5 6.1 4.9 9.9 10.6 9.9 4.7 0 7.4-2.3 8.8-5.2h8.3c-2.2 6.4-8 11.6-17.1 11.6zm-10.6-22.5h20.6c-.1-5.7-4.7-9.4-10.4-9.4-5.2 0-9.3 3.5-10.2 9.4zM202.8 93.8c-10.7 0-18.6-7.6-18.6-19.2 0-11.7 7.6-19.2 18.6-19.2 10.6 0 18.1 7.4 18.1 18.3 0 1.3-.1 2.5-.3 3.8h-28.4c.5 6.1 4.9 9.9 10.6 9.9 4.7 0 7.4-2.3 8.8-5.2h8.3c-2.1 6.4-8 11.6-17.1 11.6zm-10.5-22.5h20.6c-.1-5.7-4.7-9.4-10.4-9.4-5.2 0-9.4 3.5-10.2 9.4zM249.1 55.4c9.8 0 17.5 7.6 17.5 19s-7.7 19.4-17.5 19.4c-6.1 0-10.5-3.1-13-6v23.1h-7.7V56h7.7v5.5c2.4-3.1 6.9-6.1 13-6.1zm-1.7 6.7c-5.7 0-11.3 4.5-11.3 12.5s5.5 12.5 11.3 12.5c5.8 0 11.3-4.7 11.3-12.7s-5.5-12.3-11.3-12.3zM281.9 46.3V87h15.9v6.2h-23.5V46.3h7.6zM320.1 93.8c-10.7 0-18.6-7.6-18.6-19.2 0-11.7 7.6-19.2 18.6-19.2 10.6 0 18.1 7.4 18.1 18.3 0 1.3-.1 2.5-.3 3.8h-28.4c.5 6.1 4.9 9.9 10.6 9.9 4.7 0 7.4-2.3 8.8-5.2h8.3c-2.1 6.4-8 11.6-17.1 11.6zm-10.5-22.5h20.6c-.1-5.7-4.7-9.4-10.4-9.4-5.2 0-9.4 3.5-10.2 9.4zM360.8 55.4c6.3 0 10.6 3 12.9 6V56h7.8v37.2h-7.8v-5.5c-2.4 3.2-6.8 6.1-13 6.1-9.6 0-17.4-7.9-17.4-19.4s7.7-19 17.5-19zm1.6 6.7c-5.7 0-11.3 4.3-11.3 12.3s5.5 12.7 11.3 12.7c5.8 0 11.3-4.5 11.3-12.5-.1-8-5.5-12.5-11.3-12.5zM399.2 93.2h-7.7V56h7.7v5.4c2.2-3.7 5.9-6 11.1-6v8h-2c-5.7 0-9.2 2.4-9.2 10.3v19.5zM443.8 72.4c0-6.8-3.7-10.3-9.3-10.3-5.7 0-9.4 3.5-9.4 10.3v20.8h-7.7V56h7.7v4.3c2.5-3 6.6-4.9 11.1-4.9 8.7 0 15.2 5.5 15.2 15.9v21.9h-7.6V72.4zM460.2 46.2c0-2.8 2.2-4.9 4.9-4.9s4.9 2.2 4.9 4.9c0 2.8-2.2 4.9-4.9 4.9s-4.9-2.2-4.9-4.9zm1 9.8h7.7v37.2h-7.7V56zM505.4 72.4c0-6.8-3.7-10.3-9.3-10.3-5.7 0-9.4 3.5-9.4 10.3v20.8H479V56h7.7v4.3c2.5-3 6.6-4.9 11.1-4.9 8.7 0 15.2 5.5 15.2 15.9v21.9h-7.6V72.4zM537.8 55.4c6.1 0 10.6 2.8 12.9 6V56h7.8v37.8c0 10.1-6.5 17.7-18.1 17.7-9.9 0-17.3-4.9-18.2-13.2h7.6c1.1 3.8 5.3 6.5 10.6 6.5 5.9 0 10.4-3.6 10.4-11.1v-6.2c-2.4 3.2-6.8 6.2-12.9 6.2-9.8 0-17.5-7.9-17.5-19.4s7.6-18.9 17.4-18.9zm1.6 6.7c-5.7 0-11.3 4.3-11.3 12.3s5.5 12.7 11.3 12.7c5.8 0 11.3-4.5 11.3-12.5s-5.5-12.5-11.3-12.5zM568.3 93.7c-2.8 0-4.9-2.2-4.9-4.9 0-2.8 2.2-4.9 4.9-4.9s4.9 2.2 4.9 4.9-2.2 4.9-4.9 4.9zM609.7 83.6h-19.6l-3.4 9.6h-8l16.8-47h8.9l16.8 47h-8.1l-3.4-9.6zm-9.7-28l-7.7 21.8h15.3L600 55.6zM628.5 46.3h7.7v46.9h-7.7V46.3z"/><g><path class="st4" d="M44.6 109.6C23.3 109.6 6 92.3 6 71s17.3-38.6 38.6-38.6S83.2 49.7 83.2 71s-17.3 38.6-38.6 38.6zm.3-15.5c16 0 29-13.3 29-29.6s-13-29.6-29-29.6-29 13.3-29 29.6 12.9 29.6 29 29.6zm-.3-6.7c-14.6 0-26.4-11.5-26.4-25.6S30 36.1 44.6 36.1 71 47.6 71 61.8 59.1 87.4 44.6 87.4zM44 76.9c11 0 20-8.6 20-19.1 0-10.6-9-19.1-20-19.1s-20 8.6-20 19.1c0 10.5 8.9 19.1 20 19.1zm.3-3.7c-8.6 0-15.7-7.5-15.7-16.7s7-16.7 15.7-16.7S60 47.3 60 56.5s-7.1 16.7-15.7 16.7zM44 58.6c4.8 0 8.5-3.9 8.5-8.5s-3.8-8.5-8.5-8.5c-4.8 0-8.5 3.9-8.5 8.5s3.7 8.5 8.5 8.5z"/><path class="st4" d="M44.6 109.6C23.3 109.6 6 92.3 6 71s17.3-38.6 38.6-38.6S83.2 49.7 83.2 71s-17.3 38.6-38.6 38.6zm.3-15.5c16 0 29-13.3 29-29.6s-13-29.6-29-29.6-29 13.3-29 29.6 12.9 29.6 29 29.6zm-.3-6.7c-14.6 0-26.4-11.5-26.4-25.6S30 36.1 44.6 36.1 71 47.6 71 61.8 59.1 87.4 44.6 87.4zM44 76.9c11 0 20-8.6 20-19.1 0-10.6-9-19.1-20-19.1s-20 8.6-20 19.1c0 10.5 8.9 19.1 20 19.1zM28.6 56.5"/><path class="st4" d="M44.6 109.6C23.3 109.6 6 92.3 6 71s17.3-38.6 38.6-38.6S83.2 49.7 83.2 71s-17.3 38.6-38.6 38.6zm.3-15.5c16 0 29-13.3 29-29.6s-13-29.6-29-29.6-29 13.3-29 29.6 12.9 29.6 29 29.6zM24 57.7"/></g></svg>